<svg xmlns="http://www.w3.org/2000/svg" width="327.7" height="55.262" viewBox="0 0 327.7 55.262"><defs><style>.a{fill:#143439;}.b{fill:#58a77d;}</style></defs><g transform="translate(-360.029 -358.033)"><g transform="translate(416.074 370.019)"><g transform="translate(0 0.887)"><g transform="translate(0 8.781)"><path class="a" d="M547.628,444.116V429.2q0-4.69-4.2-4.69a4.417,4.417,0,0,0-2.4.734,4.274,4.274,0,0,0-1.622,1.689v17.184h-5.558V428.333a3.666,3.666,0,0,0-1.089-2.79,4.283,4.283,0,0,0-3.068-1.033,4.345,4.345,0,0,0-2.279.778A5.315,5.315,0,0,0,525.62,427v17.117h-5.558V420.308h3.824l1.134,2.09a7.722,7.722,0,0,1,5.98-2.534q4.735,0,7.136,2.579a7.168,7.168,0,0,1,2.912-1.879,10.58,10.58,0,0,1,3.735-.7,8.228,8.228,0,0,1,6.191,2.279,8.6,8.6,0,0,1,2.212,6.258v15.717Z" transform="translate(-520.062 -419.863)"/></g><g transform="translate(36.203 8.781)"><path class="a" d="M623.437,432.157a12.6,12.6,0,0,1,3.146-8.87,10.74,10.74,0,0,1,8.3-3.424q5.424,0,8.425,3.29t3,9q0,5.691-3.057,9.048a10.753,10.753,0,0,1-8.37,3.357q-5.424,0-8.436-3.39A13.069,13.069,0,0,1,623.437,432.157Zm5.78,0q0,7.869,5.669,7.87a4.873,4.873,0,0,0,4.124-2.045,9.615,9.615,0,0,0,1.523-5.824q0-7.758-5.646-7.758a4.9,4.9,0,0,0-4.135,2.045A9.351,9.351,0,0,0,629.217,432.157Z" transform="translate(-623.437 -419.863)"/></g><g transform="translate(59.268 9.226)"><path class="a" d="M702.058,445.386h-2L689.3,421.133h6.091l5.691,14.538,6.113-14.538h5.891Z" transform="translate(-689.298 -421.133)"/></g><g transform="translate(84.668)"><path class="a" d="M764.869,427.824V408.573h-3.045v-4.557h8.67v23.809Zm2.868-33.034a3.225,3.225,0,1,1-2.279.945A3.106,3.106,0,0,1,767.737,394.79Z" transform="translate(-761.824 -394.79)"/></g><g transform="translate(98.441 8.781)"><path class="a" d="M816.468,444.116V430.356a6.9,6.9,0,0,0-1.167-4.446,4.7,4.7,0,0,0-3.813-1.4,5.9,5.9,0,0,0-2.612.689,6.018,6.018,0,0,0-2.167,1.711v17.206h-5.558V420.308h4l1.023,2.223q2.267-2.668,6.691-2.668a8.879,8.879,0,0,1,6.7,2.546,9.806,9.806,0,0,1,2.456,7.1v14.605Z" transform="translate(-801.151 -419.863)"/></g><g transform="translate(122.062 7.403)"><path class="a" d="M868.711,447.673l3.512-4.335a9.385,9.385,0,0,0,6.491,2.668,9.548,9.548,0,0,0,3.957-.712q1.556-.711,1.556-1.956,0-2.112-3.446-2.112a25.42,25.42,0,0,0-2.779.222,25.415,25.415,0,0,1-2.779.222q-5.735,0-5.735-4.113a3.573,3.573,0,0,1,.956-2.312,5.871,5.871,0,0,1,2.223-1.667,8.434,8.434,0,0,1-4.068-7.491,8.111,8.111,0,0,1,2.8-6.324,9.97,9.97,0,0,1,6.891-2.5,10.893,10.893,0,0,1,5.358,1.2l2.179-2.534,3.846,3.49-2.645,1.934a9.666,9.666,0,0,1-1.1,11.438,8.568,8.568,0,0,1-6.258,2.434,15.183,15.183,0,0,1-1.6-.111l-.912-.133a6.015,6.015,0,0,0-1.189.478q-1.034.479-1.034.989,0,.889,1.534.889a13.324,13.324,0,0,0,2.312-.333,14.132,14.132,0,0,1,2.779-.334q8.114,0,8.114,6.514a6.381,6.381,0,0,1-3.245,5.658A14.327,14.327,0,0,1,878.6,450.9,16.4,16.4,0,0,1,868.711,447.673Zm5.558-21.563a4.831,4.831,0,0,0,1.167,3.39,4.049,4.049,0,0,0,3.146,1.278,3.791,3.791,0,0,0,3.045-1.245,5.091,5.091,0,0,0,1.067-3.423,4.333,4.333,0,0,0-1.145-3.045,3.847,3.847,0,0,0-2.967-1.245,4.114,4.114,0,0,0-4.313,4.29Z" transform="translate(-868.6 -415.928)"/></g></g><g transform="translate(147.014)"><g transform="translate(0 9.759)"><path class="b" d="M939.938,442.843l1.978-4.424a8.8,8.8,0,0,0,5.624,1.979q3.245,0,3.245-2.312a2.838,2.838,0,0,0-.978-2.223,14.973,14.973,0,0,0-3.8-2.045q-6.158-2.557-6.158-7.158a5.622,5.622,0,0,1,2.356-4.813,9.951,9.951,0,0,1,6.024-1.723,15.145,15.145,0,0,1,6.98,1.667l-1.6,4.313a7.567,7.567,0,0,0-5.069-1.556q-2.913,0-2.912,2.312a2.077,2.077,0,0,0,.956,1.645,19.723,19.723,0,0,0,4.09,1.967,10.485,10.485,0,0,1,4.513,2.99,6.668,6.668,0,0,1,1.378,4.246,6.23,6.23,0,0,1-2.457,5.213,10.648,10.648,0,0,1-6.68,1.9,15.068,15.068,0,0,1-3.813-.389A18.662,18.662,0,0,1,939.938,442.843Z" transform="translate(-939.849 -420.124)"/></g><g transform="translate(18.241 9.759)"><path class="b" d="M991.935,432.417a12.594,12.594,0,0,1,3.146-8.87,10.74,10.74,0,0,1,8.3-3.423q5.424,0,8.425,3.29t3,9q0,5.691-3.057,9.048a10.753,10.753,0,0,1-8.37,3.356q-5.424,0-8.436-3.39A13.069,13.069,0,0,1,991.935,432.417Zm5.78,0q0,7.869,5.669,7.869a4.872,4.872,0,0,0,4.124-2.045,9.613,9.613,0,0,0,1.523-5.824q0-7.758-5.646-7.759a4.9,4.9,0,0,0-4.135,2.045A9.351,9.351,0,0,0,997.715,432.417Z" transform="translate(-991.935 -420.124)"/></g><g transform="translate(44.196 9.759)"><path class="b" d="M1079.808,425.748a5.832,5.832,0,0,0-3.268-.978,4.436,4.436,0,0,0-3.435,1.756,6.38,6.38,0,0,0-1.5,4.29v13.561h-5.557V420.569h5.557v2.178a7.9,7.9,0,0,1,6.2-2.623,8.881,8.881,0,0,1,4.357.867Z" transform="translate(-1066.048 -420.124)"/></g><g transform="translate(60.37 3.312)"><path class="b" d="M1114.987,413.076h-2.757v-4.468h2.757v-4.846l5.558-2.045v6.891h6.536v4.468h-6.536V423.5a6.145,6.145,0,0,0,.8,3.612,3.306,3.306,0,0,0,2.8,1.056,6.891,6.891,0,0,0,3.735-1.089v5.113a17.7,17.7,0,0,1-5.513.667,7.184,7.184,0,0,1-5.469-2.012,7.984,7.984,0,0,1-1.912-5.724Z" transform="translate(-1112.23 -401.716)"/></g><g transform="translate(77.411 9.759)"><path class="b" d="M1183.7,434.173h-17.006a6.037,6.037,0,0,0,1.956,4.424,7.091,7.091,0,0,0,4.846,1.578,7.831,7.831,0,0,0,5.78-1.979l2.156,4.246q-2.934,2.379-8.759,2.379a11.592,11.592,0,0,1-8.614-3.19q-3.168-3.189-3.168-8.9a12.347,12.347,0,0,1,3.479-9.114,12.2,12.2,0,0,1,16.661-.4,10.58,10.58,0,0,1,3.135,7.87A15.535,15.535,0,0,1,1183.7,434.173Zm-16.806-4.179h11.693q-.578-5.224-5.78-5.224Q1168.047,424.77,1166.891,429.994Z" transform="translate(-1160.889 -420.124)"/></g><g transform="translate(102.655)"><path class="b" d="M1249.4,426.27v-1.445a5.636,5.636,0,0,1-2.334,1.322,10.361,10.361,0,0,1-3.4.567,10.032,10.032,0,0,1-7.836-3.156q-2.857-3.157-2.857-8.8a13,13,0,0,1,3.279-9.192,10.722,10.722,0,0,1,8.214-3.546,10.887,10.887,0,0,1,4.935,1.112v-9.537l5.557-1.334V426.27Zm0-18.118a5.873,5.873,0,0,0-3.713-1.423,6.5,6.5,0,0,0-5.135,2.034,8.529,8.529,0,0,0-1.8,5.836q0,7.425,7.158,7.425a5.4,5.4,0,0,0,1.968-.478,3.592,3.592,0,0,0,1.523-.967Z" transform="translate(-1232.971 -392.258)"/></g></g></g><g transform="translate(360.029 358.033)"><path class="b" d="M408.693,413.295H374.368V401H360.029v-22.54l23.535-20.431,25.129,20.355Zm-29.072-5.253H403.44V380.893l-19.759-16.005-18.4,15.972v14.89h9.086V378.566h21.509V401H379.621Zm0-12.291h11V383.819h-11Z" transform="translate(-360.029 -358.033)"/></g></g></svg>